PathFileType	3	(X/Y/Z)	feet_movements_1__view2_aligned.trc
DataRate	CameraRate	NumFrames	NumMarkers	Units	OrigDataRate	OrigDataStartFrame	OrigNumFrames
100.0	100.0	7	19	mm	100.0	642	1840
Frame#	Time	pelvis			neck			head			hip_left			hip_right			knee_left			knee_right			ankle_left			ankle_right			heel_left			heel_right			toe_left			toe_right			shoulder_left			shoulder_right			elbow_left			elbow_right			wrist_left			wrist_right			
		X1	Y1	Z1	X2	Y2	Z2	X3	Y3	Z3	X4	Y4	Z4	X5	Y5	Z5	X6	Y6	Z6	X7	Y7	Z7	X8	Y8	Z8	X9	Y9	Z9	X10	Y10	Z10	X11	Y11	Z11	X12	Y12	Z12	X13	Y13	Z13	X14	Y14	Z14	X15	Y15	Z15	X16	Y16	Z16	X17	Y17	Z17	X18	Y18	Z18	X19	Y19	Z19	
642	6.41000	45.532525	934.976884	334.924121	94.022422	1363.725689	635.596995	104.406598	1519.331835	600.916241	-19.917389	963.740802	308.361640	110.982901	906.212933	361.486711	21.833423	1120.755096	-88.230681	251.223835	518.405483	242.105710	12.230941	1085.020710	-491.001373	128.270273	167.763878	404.743949	-1.361471	1046.480153	-528.635358	94.471151	136.156724	441.468625	91.504727	1220.221118	-603.011819	221.098572	58.607043	291.101978	-73.440006	1350.926539	608.010003	255.869711	1295.085706	669.705393	-255.631073	1199.074008	456.468590	394.502969	1091.572386	538.776223	-399.722582	1124.805853	272.574975	448.395013	1047.586004	308.297340
643	6.42000	43.140874	935.299314	333.984130	91.237892	1364.452172	633.812069	101.552007	1519.665012	598.506146	-22.126003	963.959633	307.252964	108.408144	906.638967	360.715391	19.410612	1118.857416	-90.118985	248.685435	518.726273	241.676026	8.882689	1081.791166	-492.682988	126.381117	167.867766	404.065946	-4.948538	1042.982932	-529.838455	92.625305	136.217116	440.781334	88.167061	1215.222541	-606.925508	219.411048	58.786437	290.513762	-75.978351	1351.873516	605.932218	252.675584	1295.959965	668.713875	-257.903163	1199.199789	455.257673	391.694142	1092.539605	538.669818	-402.070267	1124.391664	271.906991	445.837688	1048.678126	308.413437
644	6.43000	40.749223	935.621744	333.044140	88.453361	1365.178654	632.027143	98.697415	1519.998189	596.096052	-24.334618	964.178464	306.144288	105.833386	907.065000	359.944070	16.987802	1116.959737	-92.007288	246.147036	519.047064	241.246342	5.534438	1078.561622	-494.364602	124.491961	167.971655	403.387943	-8.535606	1039.485711	-531.041553	90.779459	136.277509	440.094042	84.829395	1210.223963	-610.839196	217.723525	58.965830	289.925545	-78.516697	1352.820492	603.854433	249.481457	1296.834224	667.722357	-260.175253	1199.325570	454.046756	388.885314	1093.506824	538.563414	-404.417953	1123.977476	271.239008	443.280363	1049.770247	308.529534
645	6.44000	38.357572	935.944173	332.104149	85.668831	1365.905136	630.242217	95.842824	1520.331366	593.685957	-26.543232	964.397295	305.035613	103.258629	907.491034	359.172750	14.564992	1115.062057	-93.895592	243.608636	519.367854	240.816658	2.186187	1075.332079	-496.046217	122.602805	168.075543	402.709940	-12.122674	1035.988489	-532.244650	88.933612	136.337901	439.406751	81.491728	1205.225385	-614.752885	216.036001	59.145223	289.337328	-81.055042	1353.767468	601.776648	246.287331	1297.708483	666.730839	-262.447343	1199.451351	452.835839	386.076487	1094.474043	538.457009	-406.765638	1123.563287	270.571025	440.723038	1050.862369	308.645631
646	6.45000	35.965921	936.266603	331.164159	82.884301	1366.631619	628.457290	92.988233	1520.664543	591.275862	-28.751847	964.616126	303.926937	100.683872	907.917067	358.401430	12.142181	1113.164378	-95.783896	241.070237	519.688644	240.386974	-1.162064	1072.102535	-497.727831	120.713649	168.179431	402.031937	-15.709741	1032.491268	-533.447748	87.087766	136.398294	438.719460	78.154062	1200.226807	-618.666573	214.348478	59.324616	288.749112	-83.593388	1354.714444	599.698863	243.093204	1298.582742	665.739321	-264.719433	1199.577132	451.624922	383.267659	1095.441262	538.350604	-409.113324	1123.149099	269.903042	438.165714	1051.954490	308.761728
647	6.46000	33.574270	936.589033	330.224168	80.099771	1367.358101	626.672364	90.133641	1520.997720	588.865768	-30.960461	964.834957	302.818261	98.109115	908.343100	357.630110	9.719371	1111.266699	-97.672200	238.531837	520.009434	239.957290	-4.510316	1068.872991	-499.409446	118.824493	168.283319	401.353935	-19.296809	1028.994047	-534.650845	85.241920	136.458687	438.032168	74.816396	1195.228230	-622.580261	212.660954	59.504010	288.160895	-86.131733	1355.661420	597.621079	239.899077	1299.457001	664.747803	-266.991523	1199.702913	450.414005	380.458831	1096.408481	538.244200	-411.461009	1122.734910	269.235058	435.608389	1053.046612	308.877825
648	6.47000	31.182618	936.911462	329.284178	77.315240	1368.084584	624.887438	87.279050	1521.330897	586.455673	-33.169076	965.053788	301.709585	95.534358	908.769134	356.858790	7.296561	1109.369019	-99.560503	235.993438	520.330225	239.527605	-7.858567	1065.643447	-501.091060	116.935337	168.387208	400.675932	-22.883877	1025.496825	-535.853943	83.396074	136.519079	437.344877	71.478730	1190.229652	-626.493950	210.973431	59.683403	287.572679	-88.670078	1356.608396	595.543294	236.704950	1300.331260	663.756285	-269.263613	1199.828694	449.203088	377.650004	1097.375700	538.137795	-413.808695	1122.320721	268.567075	433.051064	1054.138733	308.993922
